HIERARCHY
ROOT joint_Root
{
	OFFSET 0.0 0.0 0.0
	CHANNELS 6 Xposition Yposition Zposition Zrotation Xrotation Yrotation 
	JOINT Hips
	{
		OFFSET 4.5925 91.4895 -427.239
		CHANNELS 6 Xposition Yposition Zposition Zrotation Xrotation Yrotation 
		JOINT Spine
		{
			OFFSET 15.7357 0.0 0.0
			CHANNELS 6 Xposition Yposition Zposition Zrotation Xrotation Yrotation 
			JOINT Chest
			{
				OFFSET 8.98455 -0.406207 0.0
				CHANNELS 6 Xposition Yposition Zposition Zrotation Xrotation Yrotation 
				JOINT Neck
				{
					OFFSET 16.3773 0.0 0.0
					CHANNELS 6 Xposition Yposition Zposition Zrotation Xrotation Yrotation 
					JOINT Head
					{
						OFFSET 6.45672 0.0 0.0
						CHANNELS 6 Xposition Yposition Zposition Zrotation Xrotation Yrotation 
						End Site
						{
							OFFSET 0.0 0.0 0.0
						}
					}
				}
				JOINT Shoulder_L
				{
					OFFSET 12.9942 -0.242716 4.98039
					CHANNELS 6 Xposition Yposition Zposition Zrotation Xrotation Yrotation 
					JOINT UpperArm_L
					{
						OFFSET 5.34809 0.0 0.0
						CHANNELS 6 Xposition Yposition Zposition Zrotation Xrotation Yrotation 
						JOINT LowerArm_L
						{
							OFFSET 24.3286 1.87007e-05 0.0
							CHANNELS 6 Xposition Yposition Zposition Zrotation Xrotation Yrotation 
							JOINT Hand_L
							{
								OFFSET 22.2916 0.0 0.0
								CHANNELS 6 Xposition Yposition Zposition Zrotation Xrotation Yrotation 
								End Site
								{
									OFFSET 0.0 0.0 0.0
								}
							}
						}
					}
				}
				JOINT Shoulder_R
				{
					OFFSET 12.9945 -0.242716 -4.98039
					CHANNELS 6 Xposition Yposition Zposition Zrotation Xrotation Yrotation 
					JOINT UpperArm_R
					{
						OFFSET -5.34813 0.0 0.0
						CHANNELS 6 Xposition Yposition Zposition Zrotation Xrotation Yrotation 
						JOINT LowerArm_R
						{
							OFFSET -24.3289 0.000322201 0.0
							CHANNELS 6 Xposition Yposition Zposition Zrotation Xrotation Yrotation 
							JOINT Hand_R
							{
								OFFSET -22.2915 -0.000108084 0.0
								CHANNELS 6 Xposition Yposition Zposition Zrotation Xrotation Yrotation 
								End Site
								{
									OFFSET 0.0 0.0 0.0
								}
							}
						}
					}
				}
			}
		}
		JOINT UpperLeg_L
		{
			OFFSET -2.19248 -6.46944 0.0
			CHANNELS 6 Xposition Yposition Zposition Zrotation Xrotation Yrotation 
			JOINT LowerLeg_L
			{
				OFFSET 39.0811 0.0 -1.23785e-05
				CHANNELS 6 Xposition Yposition Zposition Zrotation Xrotation Yrotation 
				JOINT Foot_L
				{
					OFFSET 40.9854 0.0 -1.26872e-05
					CHANNELS 6 Xposition Yposition Zposition Zrotation Xrotation Yrotation 
					JOINT Toes_L
					{
						OFFSET 11.7543 0.0 0.0
						CHANNELS 6 Xposition Yposition Zposition Zrotation Xrotation Yrotation 
						End Site
						{
							OFFSET 0.0 0.0 0.0
						}
					}
				}
			}
		}
		JOINT UpperLeg_R
		{
			OFFSET -2.19251 6.46944 0.0
			CHANNELS 6 Xposition Yposition Zposition Zrotation Xrotation Yrotation 
			JOINT LowerLeg_R
			{
				OFFSET -39.0811 -0.00228153 -0.0401928
				CHANNELS 6 Xposition Yposition Zposition Zrotation Xrotation Yrotation 
				JOINT Foot_R
				{
					OFFSET -40.9854 0.0 0.0
					CHANNELS 6 Xposition Yposition Zposition Zrotation Xrotation Yrotation 
					JOINT Toes_R
					{
						OFFSET -11.7543 0.0 0.0
						CHANNELS 6 Xposition Yposition Zposition Zrotation Xrotation Yrotation 
						End Site
						{
							OFFSET 0.0 0.0 0.0
						}
					}
				}
			}
		}
	}
}
MOTION
Frames:	4
Frame Time:	0.0333333
0.000000 0.000000 0.000000 0.000000 0.000000 -0.000000 -1.340950 90.324800 3.197180 90.651600 -3.092960 12.018700 15.735700 0.000005 -0.000001 77.663300 83.355300 -76.239900 8.984550 -0.406207 -0.000000 5.258880 -2.864320 2.975670 16.377300 -0.000001 -0.000001 28.394600 -12.046700 2.573720 6.456720 -0.000001 -0.000000 20.111500 -15.048600 11.913400 12.994200 -0.242716 4.980390 -87.124400 -7.232870 -68.249500 5.348090 -0.000007 -0.000001 -51.104600 -35.549200 -86.271000 24.328600 0.000019 0.000005 14.109800 13.408600 -47.307000 22.291600 -0.000001 0.000005 8.197010 5.348710 -1.338650 12.994500 -0.242716 -4.980390 88.520700 9.331360 -80.950800 -5.348130 -0.000001 -0.000004 -64.009000 30.572400 -6.298520 -24.328900 0.000322 -0.000009 1.237450 4.002200 -17.210600 -22.291500 -0.000108 -0.000004 13.004500 5.406410 -3.147000 -2.192480 -6.469440 -0.000000 -173.939000 -13.136600 4.813160 39.081100 -0.000007 -0.000012 -0.224989 0.384018 30.365600 40.985400 -0.000006 -0.000013 -0.500117 5.923220 -72.564800 11.754300 -0.000000 0.000003 -0.000197 -0.001832 -16.646700 -2.192510 6.469440 -0.000001 171.637000 19.841300 -174.165000 -39.081100 -0.002282 -0.040193 -0.258820 0.438808 30.852200 -40.985400 0.000008 0.000006 3.941710 14.132800 -74.179600 -11.754300 -0.000006 -0.000006 -0.001302 -0.019614 -17.370700
0.000000 0.000000 0.000000 0.000000 0.000000 -0.000000 -1.283940 90.320400 3.263650 90.661400 -3.169490 12.006300 15.735700 0.000005 -0.000001 77.343900 83.367200 -75.912000 8.984550 -0.406207 -0.000000 5.220860 -2.932020 2.994670 16.377300 -0.000001 -0.000001 28.349900 -12.122500 2.654860 6.456720 -0.000001 -0.000000 20.072100 -15.159300 12.007500 12.994200 -0.242716 4.980390 -87.121600 -7.204970 -68.154600 5.348090 -0.000007 -0.000001 -51.301400 -35.698500 -86.346800 24.328600 0.000019 0.000005 14.075500 13.424000 -47.202400 22.291600 -0.000001 0.000005 8.243120 5.348260 -1.325080 12.994500 -0.242716 -4.980390 88.511500 9.326220 -80.890100 -5.348130 -0.000001 -0.000004 -63.944500 30.489400 -6.426270 -24.328900 0.000322 -0.000009 1.198070 3.868440 -17.236700 -22.291500 -0.000108 -0.000004 12.953300 5.407880 -3.195300 -2.192480 -6.469440 -0.000000 -173.969000 -13.238200 4.876720 39.081100 -0.000007 -0.000012 -0.220554 0.376788 30.343100 40.985400 -0.000006 -0.000013 -0.465334 5.901140 -72.616800 11.754300 -0.000000 0.000003 -0.000183 -0.001720 -16.642600 -2.192510 6.469440 -0.000001 171.571000 19.802000 -174.132000 -39.081100 -0.002282 -0.040193 -0.261587 0.443702 30.837400 -40.985400 0.000008 0.000006 3.911110 14.210100 -74.202000 -11.754300 -0.000006 -0.000006 -0.001429 -0.021320 -17.440000
0.000000 0.000000 0.000000 0.000000 0.000000 -0.000000 -1.236350 90.315000 3.330850 90.646600 -3.240980 11.981600 15.735700 0.000005 -0.000001 77.074800 83.367800 -75.624900 8.984550 -0.406207 -0.000000 5.207460 -2.992980 3.033230 16.377300 -0.000001 -0.000001 28.260400 -12.207200 2.716400 6.456720 -0.000001 -0.000000 20.108200 -15.173200 12.106700 12.994200 -0.242716 4.980390 -87.136500 -7.139240 -68.077000 5.348090 -0.000007 -0.000001 -51.456000 -35.905100 -86.488600 24.328600 0.000019 0.000005 14.133200 13.532700 -47.098100 22.291600 -0.000001 0.000005 8.189990 5.349130 -1.351140 12.994500 -0.242716 -4.980390 88.481400 9.367410 -80.748900 -5.348130 -0.000001 -0.000004 -63.715800 30.548100 -6.670120 -24.328900 0.000322 -0.000009 1.190900 3.814090 -17.369100 -22.291500 -0.000108 -0.000004 13.072500 5.406790 -3.159540 -2.192480 -6.469440 -0.000000 -173.977000 -13.260600 4.918960 39.081100 -0.000007 -0.000012 -0.224959 0.384476 30.332500 40.985400 -0.000006 -0.000013 -0.446879 5.865300 -72.676000 11.754300 -0.000000 0.000003 -0.000195 -0.001815 -16.646100 -2.192510 6.469440 -0.000001 171.544000 19.759800 -174.106000 -39.081100 -0.002282 -0.040193 -0.259251 0.440221 30.812600 -40.985400 0.000008 0.000006 3.881680 14.280200 -74.222100 -11.754300 -0.000006 -0.000006 -0.001476 -0.021955 -17.465900
0.000000 0.000000 0.000000 0.000000 0.000000 -0.000000 -1.169590 90.305200 3.401910 90.655100 -3.318180 11.991100 15.735700 0.000005 -0.000001 76.666200 83.345000 -75.191100 8.984550 -0.406207 -0.000000 5.232890 -3.095620 3.088770 16.377300 -0.000001 -0.000001 28.280200 -12.264800 2.836160 6.456720 -0.000001 -0.000000 19.980300 -15.183100 12.000400 12.994200 -0.242716 4.980390 -87.179900 -6.995860 -67.979600 5.348090 -0.000007 -0.000001 -51.611400 -36.143300 -86.608400 24.328600 0.000019 0.000005 14.112700 13.530700 -47.059100 22.291600 -0.000001 0.000005 8.258060 5.346890 -1.284070 12.994500 -0.242716 -4.980390 88.438800 9.451170 -80.576000 -5.348130 -0.000001 -0.000004 -63.364800 30.579800 -7.007150 -24.328900 0.000322 -0.000009 1.231330 3.899250 -17.554700 -22.291500 -0.000108 -0.000004 13.116500 5.407650 -3.187570 -2.192480 -6.469440 -0.000000 -174.019000 -13.300500 4.992030 39.081100 -0.000007 -0.000012 -0.224002 0.382824 30.333500 40.985400 -0.000006 -0.000013 -0.421167 5.798160 -72.745000 11.754300 -0.000000 0.000003 -0.000194 -0.001802 -16.645600 -2.192510 6.469440 -0.000001 171.466000 19.717200 -174.056000 -39.081100 -0.002282 -0.040193 -0.261514 0.443899 30.819200 -40.985400 0.000008 0.000006 3.834690 14.324500 -74.254700 -11.754300 -0.000006 -0.000006 -0.001435 -0.021410 -17.443700
